<svg xmlns="http://www.w3.org/2000/svg" width="512" height="512"><path d="M236.062 1.013c-44.161 3.684-86.484 18.419-122.209 42.547C97.513 54.596 89.719 61.103 74.5 76.419c-40.078 40.334-64.374 89.717-72.116 146.582-2.303 16.916-2.303 49.082 0 65.998 9.897 72.695 48.827 136.216 108.979 177.821 75.511 52.228 175.471 59.447 257.53 18.599 28.017-13.946 44.878-26.135 67.635-48.891 22.756-22.757 34.945-39.618 48.891-67.635 12.546-25.203 20.803-52.355 24.006-78.943.892-7.397 2.064-16.825 2.605-20.95 1.3-9.917 1.282-24.311-.03-23.5-.626.387-1.007-1.744-1.02-5.691-.048-15.594-5.051-41.881-11.953-62.809-10.894-33.029-25.652-59.588-47.789-86C411.209 43.241 351.816 10.673 290 2.585 275.222.652 249.409-.101 236.062 1.013M194.613 68.75c3.281 13.852 12.094 35.354 18.444 45 1.237 1.879 1.654 3.25.988 3.25-.811 0-1.1 3.401-.98 11.525l.17 11.525-8.198 4.928c-52.277 31.419-93.308 108.286-93.159 174.522.049 21.742 3.621 39.217 11.842 57.927 7.498 17.064 18.39 27.815 33.268 32.838 6.274 2.119 8.201 2.21 52.762 2.514l46.25.314-.013-27.796-.014-27.797-9.191-4.5c-17.232-8.437-39.056-24.578-49.037-36.268-18.318-21.456-25.036-46.041-17.774-65.049 4.584-11.997 17.628-22.428 31.203-24.953 15.766-2.931 33.787 5.557 41.928 19.75l2.879 5.02.01-55.73.009-55.73 21.25-.27 21.25-.27.286-10.919c.21-8.062-.051-11.132-1-11.735-.708-.448-10.399-.822-21.536-.831L256 116V66h-62.038l.651 2.75M.37 256c0 5.775.165 8.137.367 5.25.202-2.887.202-7.613 0-10.5-.202-2.887-.367-.525-.367 5.25" fill="undefined" fill-rule="evenodd"/></svg>